<svg xmlns="http://www.w3.org/2000/svg" viewBox="0 0 100 100" role="img" aria-label="Rambler Peak">
  <circle cx="50" cy="50" r="50" fill="#2E6BE0"/>
  <path transform="translate(20, 22.575) scale(0.3332)" fill="#FFFFFF" d="M100.92,1.25a2.27,2.27,0,0,0-4.06,0L66.59,63.57a2.27,2.27,0,0,1-4.06,0l-4.29-8.5a2.26,2.26,0,0,0-4,0L.43,159.05a3.82,3.82,0,0,0,3.39,5.57H37.28a3.82,3.82,0,0,0,3.41-2.1L73.17,98a2.25,2.25,0,0,1,4,0l4.32,8.52a2.26,2.26,0,0,0,4,0L97.87,81.85a2.26,2.26,0,0,1,4.06,0l39,80.6a3.81,3.81,0,0,0,3.43,2.15h31.84a3.82,3.82,0,0,0,3.42-5.52Z"/>
</svg>
